<svg width="32" height="32" viewBox="0 0 32 32" fill="none" xmlns="http://www.w3.org/2000/svg">
<path d="M23.1688 0H8.8306C3.96141 0 0 3.9616 0 8.83079V23.169C0 28.0384 3.96141 31.9998 8.8306 31.9998H23.1688C28.0384 31.9998 31.9998 28.0382 31.9998 23.169V8.83079C32 3.9616 28.0384 0 23.1688 0ZM29.1608 23.169C29.1608 26.4729 26.4729 29.1606 23.169 29.1606H8.8306C5.52693 29.1608 2.83918 26.4729 2.83918 23.169V8.83079C2.83918 5.52712 5.52693 2.83918 8.8306 2.83918H23.1688C26.4727 2.83918 29.1606 5.52712 29.1606 8.83079V23.169H29.1608Z" fill="white"/>
<path d="M15.9999 7.75479C11.4533 7.75479 7.75439 11.4537 7.75439 16.0003C7.75439 20.5468 11.4533 24.2455 15.9999 24.2455C20.5466 24.2455 24.2455 20.5468 24.2455 16.0003C24.2455 11.4537 20.5466 7.75479 15.9999 7.75479ZM15.9999 21.4061C13.019 21.4061 10.5936 18.9811 10.5936 16.0001C10.5936 13.019 13.0188 10.5938 15.9999 10.5938C18.9811 10.5938 21.4063 13.019 21.4063 16.0001C21.4063 18.9811 18.9809 21.4061 15.9999 21.4061Z" fill="white"/>
<path d="M24.5913 5.34732C24.0443 5.34732 23.507 5.56878 23.1206 5.9568C22.7324 6.34293 22.5093 6.88048 22.5093 7.42938C22.5093 7.97659 22.7326 8.51395 23.1206 8.90197C23.5068 9.2881 24.0443 9.51145 24.5913 9.51145C25.1402 9.51145 25.6759 9.2881 26.0639 8.90197C26.4519 8.51395 26.6734 7.9764 26.6734 7.42938C26.6734 6.88048 26.4519 6.34293 26.0639 5.9568C25.6778 5.56878 25.1402 5.34732 24.5913 5.34732Z" fill="white"/>
</svg>
